<mxfile host="app.diagrams.net" modified="2023-04-06T10:20:44.637Z" agent="Mozilla/5.0 (Windows NT 10.0; Win64; x64; rv:109.0) Gecko/20100101 Firefox/111.0" etag="vjFCrgIGdwlZzZNh-yi-" version="21.1.2" type="device">
  <diagram name="Page-1" id="0783ab3e-0a74-02c8-0abd-f7b4e66b4bec">
    <mxGraphModel dx="1434" dy="739" grid="1" gridSize="10" guides="1" tooltips="1" connect="1" arrows="1" fold="1" page="1" pageScale="1" pageWidth="850" pageHeight="1100" background="none" math="0" shadow="0">
      <root>
        <mxCell id="0" />
        <mxCell id="1" parent="0" />
        <mxCell id="1c1d494c118603dd-1" value="STK" style="swimlane;html=1;childLayout=stackLayout;startSize=20;rounded=0;shadow=0;comic=0;labelBackgroundColor=none;strokeWidth=1;fontFamily=Verdana;fontSize=12;align=center;direction=west;flipV=1;flipH=1;" parent="1" vertex="1">
          <mxGeometry x="40" y="30" width="1150" height="1200" as="geometry" />
        </mxCell>
        <mxCell id="sTQLgKxaRaXE6E2DyaXD-17" value="yes" style="edgeStyle=orthogonalEdgeStyle;html=1;align=left;verticalAlign=top;endArrow=open;endSize=8;strokeColor=#d6b656;rounded=0;entryX=0;entryY=0.5;entryDx=0;entryDy=0;entryPerimeter=0;exitX=1;exitY=0.5;exitDx=0;exitDy=0;fillColor=#fff2cc;" parent="1c1d494c118603dd-1" source="sTQLgKxaRaXE6E2DyaXD-15" target="sTQLgKxaRaXE6E2DyaXD-24" edge="1">
          <mxGeometry x="-1" relative="1" as="geometry">
            <mxPoint x="460" y="270" as="targetPoint" />
            <Array as="points">
              <mxPoint x="300" y="295" />
              <mxPoint x="300" y="205" />
            </Array>
            <mxPoint as="offset" />
          </mxGeometry>
        </mxCell>
        <mxCell id="sTQLgKxaRaXE6E2DyaXD-36" value="no" style="edgeStyle=orthogonalEdgeStyle;html=1;align=left;verticalAlign=bottom;endArrow=open;endSize=8;strokeColor=#6c8ebf;rounded=0;exitX=0;exitY=0.5;exitDx=0;exitDy=0;fillColor=#dae8fc;" parent="1c1d494c118603dd-1" source="sTQLgKxaRaXE6E2DyaXD-35" edge="1">
          <mxGeometry x="-0.3545" relative="1" as="geometry">
            <mxPoint x="255" y="680" as="targetPoint" />
            <Array as="points">
              <mxPoint x="360" y="700" />
              <mxPoint x="255" y="700" />
            </Array>
            <mxPoint as="offset" />
          </mxGeometry>
        </mxCell>
        <mxCell id="sTQLgKxaRaXE6E2DyaXD-61" value="" style="edgeStyle=orthogonalEdgeStyle;html=1;verticalAlign=bottom;endArrow=open;endSize=8;strokeColor=#000000;rounded=0;entryX=0;entryY=0.5;entryDx=0;entryDy=0;entryPerimeter=0;fillColor=#dae8fc;exitX=0.486;exitY=0.3;exitDx=0;exitDy=0;exitPerimeter=0;" parent="1c1d494c118603dd-1" source="sTQLgKxaRaXE6E2DyaXD-60" target="sTQLgKxaRaXE6E2DyaXD-99" edge="1">
          <mxGeometry relative="1" as="geometry">
            <mxPoint x="300" y="510" as="targetPoint" />
          </mxGeometry>
        </mxCell>
        <mxCell id="sTQLgKxaRaXE6E2DyaXD-104" value="yes" style="edgeStyle=orthogonalEdgeStyle;html=1;align=left;verticalAlign=top;endArrow=open;endSize=8;strokeColor=#6c8ebf;rounded=0;exitX=0;exitY=0.5;exitDx=0;exitDy=0;fillColor=#dae8fc;" parent="1c1d494c118603dd-1" source="sTQLgKxaRaXE6E2DyaXD-102" target="sTQLgKxaRaXE6E2DyaXD-9" edge="1">
          <mxGeometry x="-0.9437" y="-20" relative="1" as="geometry">
            <mxPoint x="590" y="680" as="targetPoint" />
            <mxPoint x="630" y="620" as="sourcePoint" />
            <Array as="points">
              <mxPoint x="540" y="730" />
              <mxPoint x="120" y="730" />
            </Array>
            <mxPoint as="offset" />
          </mxGeometry>
        </mxCell>
        <mxCell id="1c1d494c118603dd-2" value="&lt;div&gt;Customer arrival/departure&lt;/div&gt;" style="swimlane;html=1;startSize=20;dashed=1;dashPattern=1 2;" parent="1c1d494c118603dd-1" vertex="1">
          <mxGeometry y="20" width="380" height="1180" as="geometry" />
        </mxCell>
        <mxCell id="sTQLgKxaRaXE6E2DyaXD-3" style="edgeStyle=orthogonalEdgeStyle;rounded=0;orthogonalLoop=1;jettySize=auto;html=1;entryX=0;entryY=0.5;entryDx=0;entryDy=0;exitX=0.5;exitY=1;exitDx=0;exitDy=0;" parent="1c1d494c118603dd-2" source="60571a20871a0731-4" target="sTQLgKxaRaXE6E2DyaXD-2" edge="1">
          <mxGeometry relative="1" as="geometry" />
        </mxCell>
        <mxCell id="60571a20871a0731-4" value="" style="ellipse;whiteSpace=wrap;html=1;rounded=0;shadow=0;comic=0;labelBackgroundColor=none;strokeWidth=1;fillColor=#000000;fontFamily=Verdana;fontSize=12;align=center;" parent="1c1d494c118603dd-2" vertex="1">
          <mxGeometry x="10" y="30" width="40" height="40" as="geometry" />
        </mxCell>
        <mxCell id="sTQLgKxaRaXE6E2DyaXD-110" style="edgeStyle=orthogonalEdgeStyle;rounded=0;orthogonalLoop=1;jettySize=auto;html=1;entryX=0;entryY=0.5;entryDx=0;entryDy=0;fillColor=#fff2cc;strokeColor=#d6b656;" parent="1c1d494c118603dd-2" source="sTQLgKxaRaXE6E2DyaXD-2" target="sTQLgKxaRaXE6E2DyaXD-107" edge="1">
          <mxGeometry relative="1" as="geometry" />
        </mxCell>
        <mxCell id="-dBXf5n9zOJm4QP1ZohO-12" style="edgeStyle=orthogonalEdgeStyle;rounded=0;orthogonalLoop=1;jettySize=auto;html=1;entryX=0.5;entryY=0;entryDx=0;entryDy=0;fillColor=#ffe6cc;strokeColor=#d79b00;" parent="1c1d494c118603dd-2" source="sTQLgKxaRaXE6E2DyaXD-2" target="sTQLgKxaRaXE6E2DyaXD-15" edge="1">
          <mxGeometry relative="1" as="geometry" />
        </mxCell>
        <mxCell id="sTQLgKxaRaXE6E2DyaXD-2" value="&lt;div&gt;Customer arrival&lt;/div&gt;" style="html=1;whiteSpace=wrap;fillColor=#d5e8d4;strokeColor=#82b366;" parent="1c1d494c118603dd-2" vertex="1">
          <mxGeometry x="70" y="100" width="110" height="50" as="geometry" />
        </mxCell>
        <mxCell id="sTQLgKxaRaXE6E2DyaXD-10" style="edgeStyle=orthogonalEdgeStyle;rounded=0;orthogonalLoop=1;jettySize=auto;html=1;" parent="1c1d494c118603dd-2" source="sTQLgKxaRaXE6E2DyaXD-9" target="60571a20871a0731-5" edge="1">
          <mxGeometry relative="1" as="geometry" />
        </mxCell>
        <mxCell id="sTQLgKxaRaXE6E2DyaXD-9" value="Customer departure" style="html=1;whiteSpace=wrap;fillColor=#d5e8d4;strokeColor=#82b366;" parent="1c1d494c118603dd-2" vertex="1">
          <mxGeometry x="65" y="840" width="110" height="50" as="geometry" />
        </mxCell>
        <mxCell id="60571a20871a0731-5" value="" style="shape=mxgraph.bpmn.shape;html=1;verticalLabelPosition=bottom;labelBackgroundColor=#ffffff;verticalAlign=top;perimeter=ellipsePerimeter;outline=end;symbol=terminate;rounded=0;shadow=0;comic=0;strokeWidth=1;fontFamily=Verdana;fontSize=12;align=center;" parent="1c1d494c118603dd-2" vertex="1">
          <mxGeometry x="100" y="950" width="40" height="40" as="geometry" />
        </mxCell>
        <mxCell id="sTQLgKxaRaXE6E2DyaXD-11" value="&lt;div&gt;Q1 - &lt;br&gt;&lt;/div&gt;&lt;div&gt;Queue customers checking in&lt;/div&gt;" style="html=1;whiteSpace=wrap;fillColor=#dae8fc;strokeColor=#6c8ebf;" parent="1c1d494c118603dd-2" vertex="1">
          <mxGeometry x="70" y="420" width="110" height="50" as="geometry" />
        </mxCell>
        <mxCell id="sTQLgKxaRaXE6E2DyaXD-15" value="&lt;div&gt;FreeClerks &amp;gt; 0&lt;/div&gt;&lt;div&gt;&amp;amp;&amp;amp;&lt;br&gt;&lt;/div&gt;&lt;div&gt;Q1.Count == 0&lt;/div&gt;&lt;div&gt;&amp;amp;&amp;amp;&lt;br&gt;&lt;/div&gt;&lt;div&gt;(FreeMechanics &amp;gt; 0&lt;/div&gt;&lt;div&gt;||&lt;br&gt;&lt;/div&gt;&lt;div&gt;Q2 &amp;lt; 5) &lt;/div&gt;" style="rhombus;whiteSpace=wrap;html=1;fontColor=#000000;fillColor=#ffffc0;strokeColor=#ff0000;" parent="1c1d494c118603dd-2" vertex="1">
          <mxGeometry y="200" width="250" height="150" as="geometry" />
        </mxCell>
        <mxCell id="sTQLgKxaRaXE6E2DyaXD-16" value="no" style="edgeStyle=orthogonalEdgeStyle;html=1;align=left;verticalAlign=bottom;endArrow=open;endSize=8;strokeColor=#d6b656;rounded=0;exitX=0.5;exitY=1;exitDx=0;exitDy=0;fillColor=#fff2cc;entryX=0.5;entryY=0;entryDx=0;entryDy=0;" parent="1c1d494c118603dd-2" source="sTQLgKxaRaXE6E2DyaXD-15" target="sTQLgKxaRaXE6E2DyaXD-11" edge="1">
          <mxGeometry x="-0.1429" relative="1" as="geometry">
            <mxPoint x="130" y="400" as="targetPoint" />
            <mxPoint x="120" y="330" as="sourcePoint" />
            <Array as="points">
              <mxPoint x="125" y="380" />
              <mxPoint x="125" y="380" />
            </Array>
            <mxPoint as="offset" />
          </mxGeometry>
        </mxCell>
        <mxCell id="sTQLgKxaRaXE6E2DyaXD-54" value="Q1.Count &amp;gt;0" style="rhombus;whiteSpace=wrap;html=1;fontColor=#000000;fillColor=#ffffc0;strokeColor=#ff0000;" parent="1c1d494c118603dd-2" vertex="1">
          <mxGeometry x="210" y="619.96" width="90" height="40" as="geometry" />
        </mxCell>
        <mxCell id="sTQLgKxaRaXE6E2DyaXD-55" value="no" style="edgeStyle=orthogonalEdgeStyle;html=1;align=left;verticalAlign=bottom;endArrow=open;endSize=8;strokeColor=#6c8ebf;rounded=0;entryX=0.5;entryY=1;entryDx=0;entryDy=0;fillColor=#dae8fc;" parent="1c1d494c118603dd-2" source="sTQLgKxaRaXE6E2DyaXD-54" target="sTQLgKxaRaXE6E2DyaXD-57" edge="1">
          <mxGeometry x="-0.6911" y="20" relative="1" as="geometry">
            <mxPoint x="170" y="554.96" as="targetPoint" />
            <Array as="points">
              <mxPoint x="110" y="639.96" />
            </Array>
            <mxPoint as="offset" />
          </mxGeometry>
        </mxCell>
        <mxCell id="sTQLgKxaRaXE6E2DyaXD-56" value="yes" style="edgeStyle=orthogonalEdgeStyle;html=1;align=left;verticalAlign=top;endArrow=open;endSize=8;strokeColor=#330000;rounded=0;fillColor=#dae8fc;entryX=0.5;entryY=1;entryDx=0;entryDy=0;" parent="1c1d494c118603dd-2" source="sTQLgKxaRaXE6E2DyaXD-54" target="sTQLgKxaRaXE6E2DyaXD-120" edge="1">
          <mxGeometry x="-0.1435" y="25" relative="1" as="geometry">
            <mxPoint x="260" y="544.96" as="targetPoint" />
            <mxPoint as="offset" />
          </mxGeometry>
        </mxCell>
        <UserObject label="FreeClerks++" placeholders="1" name="Variable" id="sTQLgKxaRaXE6E2DyaXD-57">
          <mxCell style="text;html=1;strokeColor=none;fillColor=none;align=center;verticalAlign=middle;whiteSpace=wrap;overflow=hidden;" parent="1c1d494c118603dd-2" vertex="1">
            <mxGeometry x="70" y="589.96" width="80" height="20" as="geometry" />
          </mxCell>
        </UserObject>
        <mxCell id="sTQLgKxaRaXE6E2DyaXD-60" value="" style="shape=line;html=1;strokeWidth=6;strokeColor=#ff0000;rotation=-90;" parent="1c1d494c118603dd-2" vertex="1">
          <mxGeometry x="220" y="410" width="70" height="10" as="geometry" />
        </mxCell>
        <mxCell id="sTQLgKxaRaXE6E2DyaXD-62" value="Dequeue customer" style="endArrow=open;endSize=12;dashed=1;html=1;rounded=0;exitX=0.25;exitY=0.5;exitDx=0;exitDy=0;exitPerimeter=0;entryX=1;entryY=0.5;entryDx=0;entryDy=0;" parent="1c1d494c118603dd-2" source="sTQLgKxaRaXE6E2DyaXD-60" target="sTQLgKxaRaXE6E2DyaXD-11" edge="1">
          <mxGeometry x="0.4116" y="-32" width="160" relative="1" as="geometry">
            <mxPoint x="300" y="450" as="sourcePoint" />
            <mxPoint x="460" y="450" as="targetPoint" />
            <mxPoint as="offset" />
          </mxGeometry>
        </mxCell>
        <mxCell id="sTQLgKxaRaXE6E2DyaXD-107" value="ActualTime &amp;lt; 15:45" style="rhombus;whiteSpace=wrap;html=1;fontColor=#000000;fillColor=#ffffc0;strokeColor=#ff0000;" parent="1c1d494c118603dd-2" vertex="1">
          <mxGeometry x="210" y="95" width="130" height="60" as="geometry" />
        </mxCell>
        <mxCell id="sTQLgKxaRaXE6E2DyaXD-109" value="yes" style="edgeStyle=orthogonalEdgeStyle;html=1;align=left;verticalAlign=top;endArrow=open;endSize=8;strokeColor=#d6b656;rounded=0;exitX=1;exitY=0.5;exitDx=0;exitDy=0;entryX=1;entryY=0.5;entryDx=0;entryDy=0;fillColor=#fff2cc;" parent="1c1d494c118603dd-2" source="sTQLgKxaRaXE6E2DyaXD-107" target="sTQLgKxaRaXE6E2DyaXD-114" edge="1">
          <mxGeometry x="-0.9995" y="25" relative="1" as="geometry">
            <mxPoint x="350" y="50" as="targetPoint" />
            <Array as="points">
              <mxPoint x="370" y="125" />
              <mxPoint x="370" y="40" />
            </Array>
            <mxPoint as="offset" />
          </mxGeometry>
        </mxCell>
        <mxCell id="sTQLgKxaRaXE6E2DyaXD-115" style="edgeStyle=orthogonalEdgeStyle;rounded=0;orthogonalLoop=1;jettySize=auto;html=1;entryX=0.5;entryY=0;entryDx=0;entryDy=0;fillColor=#fff2cc;strokeColor=#d6b656;" parent="1c1d494c118603dd-2" source="sTQLgKxaRaXE6E2DyaXD-114" target="sTQLgKxaRaXE6E2DyaXD-2" edge="1">
          <mxGeometry relative="1" as="geometry" />
        </mxCell>
        <UserObject label="&lt;div&gt;TimeOfEvent = ActualTime + GenerateValue()&lt;/div&gt;" placeholders="1" name="Variable" id="sTQLgKxaRaXE6E2DyaXD-114">
          <mxCell style="text;html=1;strokeColor=none;fillColor=none;align=center;verticalAlign=middle;whiteSpace=wrap;overflow=hidden;" parent="1c1d494c118603dd-2" vertex="1">
            <mxGeometry x="80" y="30" width="270" height="20" as="geometry" />
          </mxCell>
        </UserObject>
        <mxCell id="sTQLgKxaRaXE6E2DyaXD-121" style="edgeStyle=orthogonalEdgeStyle;rounded=0;orthogonalLoop=1;jettySize=auto;html=1;entryX=0;entryY=0.5;entryDx=0;entryDy=0;entryPerimeter=0;fillColor=#dae8fc;strokeColor=#330000;exitX=0.5;exitY=0;exitDx=0;exitDy=0;" parent="1c1d494c118603dd-2" source="sTQLgKxaRaXE6E2DyaXD-120" target="sTQLgKxaRaXE6E2DyaXD-60" edge="1">
          <mxGeometry relative="1" as="geometry">
            <Array as="points">
              <mxPoint x="255" y="470" />
              <mxPoint x="255" y="470" />
            </Array>
          </mxGeometry>
        </mxCell>
        <mxCell id="sTQLgKxaRaXE6E2DyaXD-122" value="&lt;div&gt;yes&lt;/div&gt;" style="edgeLabel;html=1;align=center;verticalAlign=middle;resizable=0;points=[];" parent="sTQLgKxaRaXE6E2DyaXD-121" vertex="1" connectable="0">
          <mxGeometry x="-0.0571" y="2" relative="1" as="geometry">
            <mxPoint x="12" y="13" as="offset" />
          </mxGeometry>
        </mxCell>
        <mxCell id="sTQLgKxaRaXE6E2DyaXD-123" style="edgeStyle=orthogonalEdgeStyle;rounded=0;orthogonalLoop=1;jettySize=auto;html=1;entryX=0.5;entryY=0;entryDx=0;entryDy=0;fillColor=#dae8fc;strokeColor=#6c8ebf;exitX=0;exitY=0.5;exitDx=0;exitDy=0;" parent="1c1d494c118603dd-2" source="sTQLgKxaRaXE6E2DyaXD-120" target="sTQLgKxaRaXE6E2DyaXD-57" edge="1">
          <mxGeometry relative="1" as="geometry">
            <mxPoint x="190.10144927536226" y="515.0034782608695" as="sourcePoint" />
          </mxGeometry>
        </mxCell>
        <mxCell id="sTQLgKxaRaXE6E2DyaXD-124" value="no" style="edgeLabel;html=1;align=center;verticalAlign=middle;resizable=0;points=[];" parent="sTQLgKxaRaXE6E2DyaXD-123" vertex="1" connectable="0">
          <mxGeometry x="0.0839" y="-2" relative="1" as="geometry">
            <mxPoint x="72" y="6" as="offset" />
          </mxGeometry>
        </mxCell>
        <mxCell id="sTQLgKxaRaXE6E2DyaXD-120" value="&lt;div&gt;FreeMechanics &amp;gt; 0&lt;/div&gt;&lt;div&gt;||&lt;br&gt;&lt;/div&gt;&lt;div&gt;Q2 &amp;lt; 5 &lt;/div&gt;" style="rhombus;whiteSpace=wrap;html=1;fontColor=#000000;fillColor=#ffffc0;strokeColor=#ff0000;" parent="1c1d494c118603dd-2" vertex="1">
          <mxGeometry x="185" y="490" width="140" height="60" as="geometry" />
        </mxCell>
        <mxCell id="sTQLgKxaRaXE6E2DyaXD-131" value="FreeClerks &amp;gt; 0" style="rhombus;whiteSpace=wrap;html=1;fontColor=#000000;fillColor=#ffffc0;strokeColor=#ff0000;" parent="1c1d494c118603dd-2" vertex="1">
          <mxGeometry x="295" y="560" width="90" height="40" as="geometry" />
        </mxCell>
        <mxCell id="sTQLgKxaRaXE6E2DyaXD-133" value="yes" style="edgeStyle=orthogonalEdgeStyle;html=1;align=left;verticalAlign=top;endArrow=open;endSize=8;strokeColor=#b85450;rounded=0;entryX=1;entryY=0.5;entryDx=0;entryDy=0;fillColor=#f8cecc;" parent="1c1d494c118603dd-2" source="sTQLgKxaRaXE6E2DyaXD-131" target="sTQLgKxaRaXE6E2DyaXD-54" edge="1">
          <mxGeometry x="-1" relative="1" as="geometry">
            <mxPoint x="330" y="680" as="targetPoint" />
          </mxGeometry>
        </mxCell>
        <mxCell id="-dBXf5n9zOJm4QP1ZohO-2" value="" style="endArrow=block;endFill=1;html=1;edgeStyle=orthogonalEdgeStyle;align=left;verticalAlign=top;rounded=0;fillColor=#ffe6cc;strokeColor=#d79b00;" parent="1c1d494c118603dd-2" edge="1">
          <mxGeometry x="-1" relative="1" as="geometry">
            <mxPoint x="25" y="1090" as="sourcePoint" />
            <mxPoint x="185" y="1090" as="targetPoint" />
          </mxGeometry>
        </mxCell>
        <mxCell id="-dBXf5n9zOJm4QP1ZohO-5" value="Customer arrival responsibility" style="text;html=1;align=center;verticalAlign=middle;resizable=0;points=[];autosize=1;strokeColor=none;fillColor=none;" parent="1c1d494c118603dd-2" vertex="1">
          <mxGeometry x="15" y="1060" width="190" height="30" as="geometry" />
        </mxCell>
        <mxCell id="-dBXf5n9zOJm4QP1ZohO-6" value="" style="endArrow=block;endFill=1;html=1;edgeStyle=orthogonalEdgeStyle;align=left;verticalAlign=top;rounded=0;fillColor=#dae8fc;strokeColor=#6c8ebf;" parent="1c1d494c118603dd-2" edge="1">
          <mxGeometry x="-1" relative="1" as="geometry">
            <mxPoint x="25" y="1160" as="sourcePoint" />
            <mxPoint x="185" y="1160" as="targetPoint" />
            <Array as="points">
              <mxPoint x="140" y="1160" />
              <mxPoint x="140" y="1160" />
            </Array>
          </mxGeometry>
        </mxCell>
        <mxCell id="-dBXf5n9zOJm4QP1ZohO-7" value="Service responsibility" style="text;html=1;align=center;verticalAlign=middle;resizable=0;points=[];autosize=1;strokeColor=none;fillColor=none;" parent="1c1d494c118603dd-2" vertex="1">
          <mxGeometry x="15" y="1120" width="140" height="30" as="geometry" />
        </mxCell>
        <mxCell id="-dBXf5n9zOJm4QP1ZohO-8" value="" style="endArrow=block;endFill=1;html=1;edgeStyle=orthogonalEdgeStyle;align=left;verticalAlign=top;rounded=0;fillColor=#f8cecc;strokeColor=#b85450;" parent="1c1d494c118603dd-2" edge="1">
          <mxGeometry x="-1" relative="1" as="geometry">
            <mxPoint x="210" y="1090" as="sourcePoint" />
            <mxPoint x="370" y="1090" as="targetPoint" />
            <Array as="points">
              <mxPoint x="325" y="1090" />
              <mxPoint x="325" y="1090" />
            </Array>
          </mxGeometry>
        </mxCell>
        <mxCell id="-dBXf5n9zOJm4QP1ZohO-9" value="Inspection responsibility" style="text;html=1;align=center;verticalAlign=middle;resizable=0;points=[];autosize=1;strokeColor=none;fillColor=none;" parent="1c1d494c118603dd-2" vertex="1">
          <mxGeometry x="195" y="1060" width="160" height="30" as="geometry" />
        </mxCell>
        <mxCell id="-dBXf5n9zOJm4QP1ZohO-14" value="" style="endArrow=block;endFill=1;html=1;edgeStyle=orthogonalEdgeStyle;align=left;verticalAlign=top;rounded=0;fillColor=#dae8fc;strokeColor=#330000;" parent="1c1d494c118603dd-2" edge="1">
          <mxGeometry x="-1" relative="1" as="geometry">
            <mxPoint x="210" y="1160" as="sourcePoint" />
            <mxPoint x="370" y="1160" as="targetPoint" />
            <Array as="points">
              <mxPoint x="325" y="1160" />
              <mxPoint x="325" y="1160" />
            </Array>
          </mxGeometry>
        </mxCell>
        <mxCell id="-dBXf5n9zOJm4QP1ZohO-16" value="Multiple events responsibility" style="text;html=1;align=center;verticalAlign=middle;resizable=0;points=[];autosize=1;strokeColor=none;fillColor=none;" parent="1c1d494c118603dd-2" vertex="1">
          <mxGeometry x="200" y="1120" width="180" height="30" as="geometry" />
        </mxCell>
        <mxCell id="sTQLgKxaRaXE6E2DyaXD-126" style="edgeStyle=orthogonalEdgeStyle;rounded=0;orthogonalLoop=1;jettySize=auto;html=1;fillColor=#f8cecc;strokeColor=#b85450;entryX=0.5;entryY=0;entryDx=0;entryDy=0;exitX=0.75;exitY=0.5;exitDx=0;exitDy=0;exitPerimeter=0;" parent="1c1d494c118603dd-1" source="sTQLgKxaRaXE6E2DyaXD-89" target="sTQLgKxaRaXE6E2DyaXD-131" edge="1">
          <mxGeometry relative="1" as="geometry">
            <mxPoint x="310" y="580" as="targetPoint" />
            <Array as="points">
              <mxPoint x="920" y="880" />
              <mxPoint x="990" y="880" />
              <mxPoint x="990" y="690" />
              <mxPoint x="1050" y="690" />
              <mxPoint x="1050" y="550" />
              <mxPoint x="1010" y="550" />
              <mxPoint x="1010" y="470" />
              <mxPoint x="340" y="470" />
            </Array>
            <mxPoint x="1030" y="920" as="sourcePoint" />
          </mxGeometry>
        </mxCell>
        <mxCell id="sTQLgKxaRaXE6E2DyaXD-127" value="&lt;div&gt;Inspection will check for another checkIn&lt;/div&gt;" style="edgeLabel;html=1;align=center;verticalAlign=middle;resizable=0;points=[];" parent="sTQLgKxaRaXE6E2DyaXD-126" vertex="1" connectable="0">
          <mxGeometry x="0.3448" y="-1" relative="1" as="geometry">
            <mxPoint x="94" y="-9" as="offset" />
          </mxGeometry>
        </mxCell>
        <mxCell id="sTQLgKxaRaXE6E2DyaXD-137" style="edgeStyle=orthogonalEdgeStyle;rounded=0;orthogonalLoop=1;jettySize=auto;html=1;entryX=0.25;entryY=1;entryDx=0;entryDy=0;fillColor=#f8cecc;strokeColor=#b85450;" parent="1c1d494c118603dd-1" source="sTQLgKxaRaXE6E2DyaXD-60" target="sTQLgKxaRaXE6E2DyaXD-52" edge="1">
          <mxGeometry relative="1" as="geometry">
            <Array as="points">
              <mxPoint x="330" y="400" />
              <mxPoint x="330" y="290" />
              <mxPoint x="475" y="290" />
            </Array>
          </mxGeometry>
        </mxCell>
        <mxCell id="1c1d494c118603dd-3" value="Service" style="swimlane;html=1;startSize=20;dashed=1;dashPattern=1 4;" parent="1c1d494c118603dd-1" vertex="1">
          <mxGeometry x="380" y="20" width="770" height="1180" as="geometry" />
        </mxCell>
        <mxCell id="sTQLgKxaRaXE6E2DyaXD-23" style="edgeStyle=orthogonalEdgeStyle;rounded=0;orthogonalLoop=1;jettySize=auto;html=1;entryX=0.5;entryY=0;entryDx=0;entryDy=0;exitX=0.5;exitY=1;exitDx=0;exitDy=0;fillColor=#dae8fc;strokeColor=#6c8ebf;" parent="1c1d494c118603dd-3" source="sTQLgKxaRaXE6E2DyaXD-5" target="sTQLgKxaRaXE6E2DyaXD-6" edge="1">
          <mxGeometry relative="1" as="geometry" />
        </mxCell>
        <mxCell id="sTQLgKxaRaXE6E2DyaXD-130" value="&lt;div&gt;TimeOfEvent = ActualTime + GenerateValue()&lt;/div&gt;&lt;div&gt;//depending on type of service&lt;br&gt;&lt;/div&gt;" style="edgeLabel;html=1;align=center;verticalAlign=middle;resizable=0;points=[];" parent="sTQLgKxaRaXE6E2DyaXD-23" vertex="1" connectable="0">
          <mxGeometry x="-0.2632" y="1" relative="1" as="geometry">
            <mxPoint x="-1" y="-10" as="offset" />
          </mxGeometry>
        </mxCell>
        <mxCell id="sTQLgKxaRaXE6E2DyaXD-5" value="Service Start" style="html=1;whiteSpace=wrap;fillColor=#d5e8d4;strokeColor=#82b366;" parent="1c1d494c118603dd-3" vertex="1">
          <mxGeometry x="150" y="330" width="110" height="50" as="geometry" />
        </mxCell>
        <mxCell id="sTQLgKxaRaXE6E2DyaXD-59" style="edgeStyle=orthogonalEdgeStyle;rounded=0;orthogonalLoop=1;jettySize=auto;html=1;entryX=1;entryY=0.5;entryDx=0;entryDy=0;fillColor=#dae8fc;strokeColor=#6c8ebf;" parent="1c1d494c118603dd-3" source="sTQLgKxaRaXE6E2DyaXD-6" target="sTQLgKxaRaXE6E2DyaXD-35" edge="1">
          <mxGeometry relative="1" as="geometry">
            <Array as="points">
              <mxPoint x="120" y="475" />
              <mxPoint x="120" y="680" />
            </Array>
          </mxGeometry>
        </mxCell>
        <mxCell id="sTQLgKxaRaXE6E2DyaXD-105" style="edgeStyle=orthogonalEdgeStyle;rounded=0;orthogonalLoop=1;jettySize=auto;html=1;exitX=1;exitY=0.5;exitDx=0;exitDy=0;fillColor=#dae8fc;strokeColor=#6c8ebf;entryX=0.5;entryY=0;entryDx=0;entryDy=0;" parent="1c1d494c118603dd-3" source="sTQLgKxaRaXE6E2DyaXD-6" target="sTQLgKxaRaXE6E2DyaXD-102" edge="1">
          <mxGeometry relative="1" as="geometry">
            <Array as="points">
              <mxPoint x="285" y="475" />
            </Array>
            <mxPoint x="330" y="510" as="targetPoint" />
          </mxGeometry>
        </mxCell>
        <mxCell id="sTQLgKxaRaXE6E2DyaXD-6" value="&lt;div&gt;Service end&lt;/div&gt;" style="html=1;whiteSpace=wrap;fillColor=#d5e8d4;strokeColor=#82b366;" parent="1c1d494c118603dd-3" vertex="1">
          <mxGeometry x="150" y="470" width="110" height="50" as="geometry" />
        </mxCell>
        <mxCell id="sTQLgKxaRaXE6E2DyaXD-28" style="edgeStyle=orthogonalEdgeStyle;rounded=0;orthogonalLoop=1;jettySize=auto;html=1;entryX=0.705;entryY=0.2;entryDx=0;entryDy=0;entryPerimeter=0;fillColor=#fff2cc;strokeColor=#d6b656;" parent="1c1d494c118603dd-3" source="sTQLgKxaRaXE6E2DyaXD-24" target="sTQLgKxaRaXE6E2DyaXD-99" edge="1">
          <mxGeometry relative="1" as="geometry">
            <mxPoint x="210" y="340" as="targetPoint" />
            <Array as="points">
              <mxPoint x="201" y="220" />
              <mxPoint x="201" y="220" />
            </Array>
          </mxGeometry>
        </mxCell>
        <mxCell id="sTQLgKxaRaXE6E2DyaXD-106" style="edgeStyle=orthogonalEdgeStyle;rounded=0;orthogonalLoop=1;jettySize=auto;html=1;fillColor=#fff2cc;strokeColor=#d6b656;exitX=0.25;exitY=0.5;exitDx=0;exitDy=0;exitPerimeter=0;entryX=0.438;entryY=0;entryDx=0;entryDy=0;entryPerimeter=0;" parent="1c1d494c118603dd-3" source="sTQLgKxaRaXE6E2DyaXD-24" target="sTQLgKxaRaXE6E2DyaXD-52" edge="1">
          <mxGeometry relative="1" as="geometry">
            <mxPoint x="110" y="230" as="targetPoint" />
            <Array as="points" />
          </mxGeometry>
        </mxCell>
        <mxCell id="sTQLgKxaRaXE6E2DyaXD-24" value="" style="shape=line;html=1;strokeWidth=6;strokeColor=#ff0000;" parent="1c1d494c118603dd-3" vertex="1">
          <mxGeometry x="60" y="180" width="200" height="10" as="geometry" />
        </mxCell>
        <mxCell id="1c1d494c118603dd-4" value="&lt;div&gt;Inspection&lt;/div&gt;" style="swimlane;html=1;startSize=20;dashed=1;dashPattern=1 4;" parent="1c1d494c118603dd-3" vertex="1">
          <mxGeometry x="380" width="390" height="1180" as="geometry" />
        </mxCell>
        <mxCell id="sTQLgKxaRaXE6E2DyaXD-72" style="edgeStyle=orthogonalEdgeStyle;rounded=0;orthogonalLoop=1;jettySize=auto;html=1;fillColor=#f8cecc;strokeColor=#b85450;" parent="1c1d494c118603dd-4" source="sTQLgKxaRaXE6E2DyaXD-7" target="sTQLgKxaRaXE6E2DyaXD-8" edge="1">
          <mxGeometry relative="1" as="geometry">
            <Array as="points">
              <mxPoint x="170" y="610" />
              <mxPoint x="170" y="610" />
            </Array>
          </mxGeometry>
        </mxCell>
        <mxCell id="sTQLgKxaRaXE6E2DyaXD-129" value="TimeOfEvent = ActualTime + GenerateValue()" style="edgeLabel;html=1;align=center;verticalAlign=middle;resizable=0;points=[];" parent="sTQLgKxaRaXE6E2DyaXD-72" vertex="1" connectable="0">
          <mxGeometry x="0.2129" y="3" relative="1" as="geometry">
            <mxPoint as="offset" />
          </mxGeometry>
        </mxCell>
        <mxCell id="sTQLgKxaRaXE6E2DyaXD-7" value="&lt;div&gt;Inspection start&lt;/div&gt;" style="html=1;whiteSpace=wrap;fillColor=#d5e8d4;strokeColor=#82b366;" parent="1c1d494c118603dd-4" vertex="1">
          <mxGeometry x="110" y="475" width="110" height="50" as="geometry" />
        </mxCell>
        <mxCell id="sTQLgKxaRaXE6E2DyaXD-91" style="edgeStyle=orthogonalEdgeStyle;rounded=0;orthogonalLoop=1;jettySize=auto;html=1;entryX=0.514;entryY=0.4;entryDx=0;entryDy=0;entryPerimeter=0;fillColor=#f8cecc;strokeColor=#b85450;exitX=0.5;exitY=1;exitDx=0;exitDy=0;" parent="1c1d494c118603dd-4" source="sTQLgKxaRaXE6E2DyaXD-8" target="sTQLgKxaRaXE6E2DyaXD-89" edge="1">
          <mxGeometry relative="1" as="geometry">
            <Array as="points">
              <mxPoint x="165" y="760" />
              <mxPoint x="127" y="760" />
            </Array>
          </mxGeometry>
        </mxCell>
        <mxCell id="sTQLgKxaRaXE6E2DyaXD-8" value="Inspection end" style="html=1;whiteSpace=wrap;fillColor=#d5e8d4;strokeColor=#82b366;" parent="1c1d494c118603dd-4" vertex="1">
          <mxGeometry x="110" y="680" width="110" height="50" as="geometry" />
        </mxCell>
        <mxCell id="sTQLgKxaRaXE6E2DyaXD-12" value="&lt;div&gt;Q2 - &lt;br&gt;&lt;/div&gt;&lt;div&gt;Queue cars waiting for inspection&lt;/div&gt;" style="html=1;whiteSpace=wrap;fillColor=#dae8fc;strokeColor=#6c8ebf;" parent="1c1d494c118603dd-4" vertex="1">
          <mxGeometry x="200" y="390" width="110" height="50" as="geometry" />
        </mxCell>
        <mxCell id="sTQLgKxaRaXE6E2DyaXD-29" value="Free mechanics &amp;gt; 0" style="rhombus;whiteSpace=wrap;html=1;fontColor=#000000;fillColor=#ffffc0;strokeColor=#ff0000;" parent="1c1d494c118603dd-4" vertex="1">
          <mxGeometry x="50" y="65" width="130" height="70" as="geometry" />
        </mxCell>
        <mxCell id="sTQLgKxaRaXE6E2DyaXD-30" value="no" style="edgeStyle=orthogonalEdgeStyle;html=1;align=left;verticalAlign=bottom;endArrow=open;endSize=8;strokeColor=#000000;rounded=0;fillColor=#f5f5f5;entryX=0.25;entryY=0.5;entryDx=0;entryDy=0;entryPerimeter=0;exitX=0.5;exitY=1;exitDx=0;exitDy=0;" parent="1c1d494c118603dd-4" source="sTQLgKxaRaXE6E2DyaXD-29" target="sTQLgKxaRaXE6E2DyaXD-64" edge="1">
          <mxGeometry x="-0.3793" y="7" relative="1" as="geometry">
            <mxPoint x="170" y="200" as="targetPoint" />
            <Array as="points">
              <mxPoint x="113" y="135" />
              <mxPoint x="113" y="160" />
            </Array>
            <mxPoint as="offset" />
            <mxPoint x="80" y="160" as="sourcePoint" />
          </mxGeometry>
        </mxCell>
        <mxCell id="sTQLgKxaRaXE6E2DyaXD-31" value="yes" style="edgeStyle=orthogonalEdgeStyle;html=1;align=left;verticalAlign=top;endArrow=open;endSize=8;strokeColor=#330000;rounded=0;entryX=0.5;entryY=0;entryDx=0;entryDy=0;exitX=1;exitY=0.5;exitDx=0;exitDy=0;" parent="1c1d494c118603dd-4" source="sTQLgKxaRaXE6E2DyaXD-29" target="sTQLgKxaRaXE6E2DyaXD-33" edge="1">
          <mxGeometry x="-1" relative="1" as="geometry">
            <mxPoint x="220" y="235" as="targetPoint" />
          </mxGeometry>
        </mxCell>
        <mxCell id="-6cixApYzxS3Yqacfjop-2" style="edgeStyle=orthogonalEdgeStyle;rounded=0;orthogonalLoop=1;jettySize=auto;html=1;exitX=0;exitY=1;exitDx=0;exitDy=0;" edge="1" parent="1c1d494c118603dd-4" source="sTQLgKxaRaXE6E2DyaXD-33">
          <mxGeometry relative="1" as="geometry">
            <mxPoint x="170" y="175" as="targetPoint" />
          </mxGeometry>
        </mxCell>
        <UserObject label="FreeMechanics--" placeholders="1" name="Variable" id="sTQLgKxaRaXE6E2DyaXD-33">
          <mxCell style="text;html=1;strokeColor=none;fillColor=none;align=center;verticalAlign=middle;whiteSpace=wrap;overflow=hidden;" parent="1c1d494c118603dd-4" vertex="1">
            <mxGeometry x="180" y="155" width="100" height="20" as="geometry" />
          </mxCell>
        </UserObject>
        <mxCell id="sTQLgKxaRaXE6E2DyaXD-67" style="edgeStyle=orthogonalEdgeStyle;rounded=0;orthogonalLoop=1;jettySize=auto;html=1;exitX=0.25;exitY=0.5;exitDx=0;exitDy=0;exitPerimeter=0;" parent="1c1d494c118603dd-4" source="sTQLgKxaRaXE6E2DyaXD-64" target="-dBXf5n9zOJm4QP1ZohO-19" edge="1">
          <mxGeometry relative="1" as="geometry">
            <Array as="points">
              <mxPoint x="127" y="220" />
              <mxPoint x="127" y="280" />
            </Array>
            <mxPoint x="100" y="245" as="sourcePoint" />
            <mxPoint x="170" y="285" as="targetPoint" />
          </mxGeometry>
        </mxCell>
        <mxCell id="sTQLgKxaRaXE6E2DyaXD-64" value="" style="shape=line;html=1;strokeWidth=6;strokeColor=#ff0000;" parent="1c1d494c118603dd-4" vertex="1">
          <mxGeometry x="90" y="215" width="90" height="10" as="geometry" />
        </mxCell>
        <mxCell id="sTQLgKxaRaXE6E2DyaXD-65" value="" style="edgeStyle=orthogonalEdgeStyle;html=1;verticalAlign=bottom;endArrow=open;endSize=8;strokeColor=#36393d;rounded=0;exitX=1;exitY=0.5;exitDx=0;exitDy=0;exitPerimeter=0;fillColor=#eeeeee;" parent="1c1d494c118603dd-4" source="sTQLgKxaRaXE6E2DyaXD-64" target="sTQLgKxaRaXE6E2DyaXD-66" edge="1">
          <mxGeometry relative="1" as="geometry">
            <mxPoint x="200" y="275" as="targetPoint" />
            <Array as="points">
              <mxPoint x="255" y="220" />
            </Array>
          </mxGeometry>
        </mxCell>
        <UserObject label="Customer.InQueueForInspection = true" placeholders="1" name="Variable" id="sTQLgKxaRaXE6E2DyaXD-66">
          <mxCell style="text;html=1;strokeColor=none;fillColor=none;align=center;verticalAlign=middle;whiteSpace=wrap;overflow=hidden;" parent="1c1d494c118603dd-4" vertex="1">
            <mxGeometry x="135" y="235" width="240" height="20" as="geometry" />
          </mxCell>
        </UserObject>
        <mxCell id="sTQLgKxaRaXE6E2DyaXD-78" value="Q2.Count &amp;gt; 0" style="rhombus;whiteSpace=wrap;html=1;fontColor=#000000;fillColor=#ffffc0;strokeColor=#ff0000;" parent="1c1d494c118603dd-4" vertex="1">
          <mxGeometry x="270" y="680" width="100" height="50" as="geometry" />
        </mxCell>
        <mxCell id="sTQLgKxaRaXE6E2DyaXD-79" value="no" style="edgeStyle=orthogonalEdgeStyle;html=1;align=left;verticalAlign=bottom;endArrow=open;endSize=8;strokeColor=#b85450;rounded=0;exitX=0.5;exitY=1;exitDx=0;exitDy=0;fillColor=#f8cecc;entryX=0.5;entryY=0;entryDx=0;entryDy=0;" parent="1c1d494c118603dd-4" source="sTQLgKxaRaXE6E2DyaXD-78" target="sTQLgKxaRaXE6E2DyaXD-87" edge="1">
          <mxGeometry x="-0.25" y="10" relative="1" as="geometry">
            <mxPoint x="320" y="810" as="targetPoint" />
            <Array as="points" />
            <mxPoint as="offset" />
          </mxGeometry>
        </mxCell>
        <mxCell id="sTQLgKxaRaXE6E2DyaXD-80" value="yes" style="edgeStyle=orthogonalEdgeStyle;html=1;align=left;verticalAlign=top;endArrow=open;endSize=8;strokeColor=#b85450;rounded=0;exitX=0.5;exitY=0;exitDx=0;exitDy=0;entryX=0.545;entryY=0.6;entryDx=0;entryDy=0;entryPerimeter=0;fillColor=#f8cecc;" parent="1c1d494c118603dd-4" source="sTQLgKxaRaXE6E2DyaXD-78" target="sTQLgKxaRaXE6E2DyaXD-83" edge="1">
          <mxGeometry x="-0.596" y="-20" relative="1" as="geometry">
            <mxPoint x="300" y="610" as="targetPoint" />
            <Array as="points">
              <mxPoint x="320" y="501" />
            </Array>
            <mxPoint as="offset" />
          </mxGeometry>
        </mxCell>
        <mxCell id="-dBXf5n9zOJm4QP1ZohO-36" style="edgeStyle=orthogonalEdgeStyle;rounded=0;orthogonalLoop=1;jettySize=auto;html=1;entryX=1;entryY=0.6;entryDx=0;entryDy=0;entryPerimeter=0;fillColor=#f8cecc;strokeColor=#b85450;" parent="1c1d494c118603dd-4" source="sTQLgKxaRaXE6E2DyaXD-83" target="-dBXf5n9zOJm4QP1ZohO-34" edge="1">
          <mxGeometry relative="1" as="geometry">
            <Array as="points">
              <mxPoint x="380" y="500" />
              <mxPoint x="380" y="353" />
            </Array>
          </mxGeometry>
        </mxCell>
        <mxCell id="sTQLgKxaRaXE6E2DyaXD-83" value="" style="shape=line;html=1;strokeWidth=6;strokeColor=#ff0000;" parent="1c1d494c118603dd-4" vertex="1">
          <mxGeometry x="290" y="495" width="55" height="10" as="geometry" />
        </mxCell>
        <mxCell id="sTQLgKxaRaXE6E2DyaXD-84" value="" style="edgeStyle=orthogonalEdgeStyle;html=1;verticalAlign=bottom;endArrow=open;endSize=8;strokeColor=#b85450;rounded=0;entryX=1;entryY=0.5;entryDx=0;entryDy=0;fillColor=#f8cecc;" parent="1c1d494c118603dd-4" source="sTQLgKxaRaXE6E2DyaXD-83" target="sTQLgKxaRaXE6E2DyaXD-7" edge="1">
          <mxGeometry relative="1" as="geometry">
            <mxPoint x="370" y="660" as="targetPoint" />
          </mxGeometry>
        </mxCell>
        <mxCell id="sTQLgKxaRaXE6E2DyaXD-86" value="Dequeue customer" style="endArrow=open;endSize=12;dashed=1;html=1;rounded=0;exitX=0.527;exitY=0.2;exitDx=0;exitDy=0;exitPerimeter=0;entryX=0.5;entryY=1;entryDx=0;entryDy=0;" parent="1c1d494c118603dd-4" source="sTQLgKxaRaXE6E2DyaXD-83" target="sTQLgKxaRaXE6E2DyaXD-12" edge="1">
          <mxGeometry x="-0.3732" y="-31" width="160" relative="1" as="geometry">
            <mxPoint x="-330" y="570" as="sourcePoint" />
            <mxPoint x="-170" y="570" as="targetPoint" />
            <mxPoint x="1" as="offset" />
          </mxGeometry>
        </mxCell>
        <UserObject label="FreeMechanics++" placeholders="1" name="Variable" id="sTQLgKxaRaXE6E2DyaXD-87">
          <mxCell style="text;html=1;strokeColor=none;fillColor=none;align=center;verticalAlign=middle;whiteSpace=wrap;overflow=hidden;" parent="1c1d494c118603dd-4" vertex="1">
            <mxGeometry x="270" y="820" width="100" height="20" as="geometry" />
          </mxCell>
        </UserObject>
        <UserObject label="Customer.InspectionDone = true" placeholders="1" name="Variable" id="sTQLgKxaRaXE6E2DyaXD-88">
          <mxCell style="text;html=1;strokeColor=none;fillColor=none;align=center;verticalAlign=middle;whiteSpace=wrap;overflow=hidden;" parent="1c1d494c118603dd-4" vertex="1">
            <mxGeometry x="35" y="950" width="190" height="20" as="geometry" />
          </mxCell>
        </UserObject>
        <mxCell id="UGZl7_0lBAfCcZ_g2sME-1" style="edgeStyle=orthogonalEdgeStyle;rounded=0;orthogonalLoop=1;jettySize=auto;html=1;entryX=0;entryY=0.5;entryDx=0;entryDy=0;fillColor=#f8cecc;strokeColor=#b85450;exitX=1;exitY=0.5;exitDx=0;exitDy=0;exitPerimeter=0;" parent="1c1d494c118603dd-4" source="sTQLgKxaRaXE6E2DyaXD-89" target="sTQLgKxaRaXE6E2DyaXD-78" edge="1">
          <mxGeometry relative="1" as="geometry">
            <Array as="points">
              <mxPoint x="250" y="885" />
              <mxPoint x="250" y="705" />
            </Array>
          </mxGeometry>
        </mxCell>
        <mxCell id="sTQLgKxaRaXE6E2DyaXD-89" value="" style="shape=line;html=1;strokeWidth=6;strokeColor=#ff0000;" parent="1c1d494c118603dd-4" vertex="1">
          <mxGeometry x="55" y="880" width="140" height="10" as="geometry" />
        </mxCell>
        <mxCell id="sTQLgKxaRaXE6E2DyaXD-90" value="" style="edgeStyle=orthogonalEdgeStyle;html=1;verticalAlign=bottom;endArrow=open;endSize=8;strokeColor=#b85450;rounded=0;entryX=0.5;entryY=0;entryDx=0;entryDy=0;fillColor=#f8cecc;exitX=0.529;exitY=0.4;exitDx=0;exitDy=0;exitPerimeter=0;" parent="1c1d494c118603dd-4" source="sTQLgKxaRaXE6E2DyaXD-89" target="sTQLgKxaRaXE6E2DyaXD-88" edge="1">
          <mxGeometry relative="1" as="geometry">
            <mxPoint x="100" y="860" as="targetPoint" />
            <Array as="points">
              <mxPoint x="129" y="910" />
            </Array>
          </mxGeometry>
        </mxCell>
        <mxCell id="-dBXf5n9zOJm4QP1ZohO-19" value="NumberOfCarsBeforeInspection++" style="text;html=1;align=center;verticalAlign=middle;resizable=0;points=[];autosize=1;strokeColor=none;fillColor=none;" parent="1c1d494c118603dd-4" vertex="1">
          <mxGeometry x="165" y="270" width="210" height="30" as="geometry" />
        </mxCell>
        <mxCell id="-dBXf5n9zOJm4QP1ZohO-34" value="&lt;div&gt;NumberOfCarsBeforeInspection--&lt;/div&gt;" style="text;html=1;align=center;verticalAlign=middle;resizable=0;points=[];autosize=1;strokeColor=none;fillColor=none;" parent="1c1d494c118603dd-4" vertex="1">
          <mxGeometry x="150" y="335" width="210" height="30" as="geometry" />
        </mxCell>
        <mxCell id="sTQLgKxaRaXE6E2DyaXD-35" value="Q3.Count &amp;gt; 0" style="rhombus;whiteSpace=wrap;html=1;fontColor=#000000;fillColor=#ffffc0;strokeColor=#ff0000;" parent="1c1d494c118603dd-3" vertex="1">
          <mxGeometry x="-20" y="660" width="90" height="40" as="geometry" />
        </mxCell>
        <mxCell id="sTQLgKxaRaXE6E2DyaXD-39" value="" style="edgeStyle=orthogonalEdgeStyle;html=1;verticalAlign=bottom;endArrow=open;endSize=8;strokeColor=#6c8ebf;rounded=0;exitX=0.55;exitY=0.3;exitDx=0;exitDy=0;exitPerimeter=0;entryX=0;entryY=0.5;entryDx=0;entryDy=0;fillColor=#dae8fc;" parent="1c1d494c118603dd-3" source="sTQLgKxaRaXE6E2DyaXD-38" target="sTQLgKxaRaXE6E2DyaXD-5" edge="1">
          <mxGeometry relative="1" as="geometry">
            <mxPoint x="110" y="340" as="targetPoint" />
            <Array as="points">
              <mxPoint x="88" y="533" />
              <mxPoint x="88" y="355" />
            </Array>
          </mxGeometry>
        </mxCell>
        <mxCell id="sTQLgKxaRaXE6E2DyaXD-58" value="" style="edgeStyle=orthogonalEdgeStyle;html=1;align=left;verticalAlign=top;endArrow=open;endSize=8;strokeColor=#6c8ebf;rounded=0;exitX=0.5;exitY=0;exitDx=0;exitDy=0;fillColor=#dae8fc;" parent="1c1d494c118603dd-3" source="sTQLgKxaRaXE6E2DyaXD-35" target="sTQLgKxaRaXE6E2DyaXD-38" edge="1">
          <mxGeometry x="0.0769" y="-20" relative="1" as="geometry">
            <mxPoint x="370" y="620" as="targetPoint" />
            <mxPoint x="80" y="650" as="sourcePoint" />
            <Array as="points">
              <mxPoint x="25" y="560" />
              <mxPoint x="25" y="560" />
            </Array>
            <mxPoint as="offset" />
          </mxGeometry>
        </mxCell>
        <mxCell id="sTQLgKxaRaXE6E2DyaXD-113" value="yes" style="edgeLabel;html=1;align=center;verticalAlign=middle;resizable=0;points=[];" parent="sTQLgKxaRaXE6E2DyaXD-58" vertex="1" connectable="0">
          <mxGeometry x="-0.1273" y="1" relative="1" as="geometry">
            <mxPoint x="16" y="18" as="offset" />
          </mxGeometry>
        </mxCell>
        <mxCell id="sTQLgKxaRaXE6E2DyaXD-40" value="Dequeue customer" style="endArrow=open;endSize=12;dashed=1;html=1;rounded=0;exitX=1;exitY=0.5;exitDx=0;exitDy=0;entryX=0.5;entryY=0;entryDx=0;entryDy=0;exitPerimeter=0;" parent="1c1d494c118603dd-3" source="sTQLgKxaRaXE6E2DyaXD-38" target="sTQLgKxaRaXE6E2DyaXD-13" edge="1">
          <mxGeometry x="0.5083" y="-1" width="160" relative="1" as="geometry">
            <mxPoint x="375" y="635" as="sourcePoint" />
            <mxPoint x="375" y="580" as="targetPoint" />
            <mxPoint as="offset" />
          </mxGeometry>
        </mxCell>
        <mxCell id="sTQLgKxaRaXE6E2DyaXD-38" value="" style="shape=line;html=1;strokeWidth=6;strokeColor=#ff0000;" parent="1c1d494c118603dd-3" vertex="1">
          <mxGeometry x="40" y="530" width="60" height="10" as="geometry" />
        </mxCell>
        <mxCell id="sTQLgKxaRaXE6E2DyaXD-13" value="&lt;div&gt;Q3 - &lt;br&gt;&lt;/div&gt;&lt;div&gt;Queue customers paying&lt;/div&gt;" style="html=1;whiteSpace=wrap;fillColor=#dae8fc;strokeColor=#6c8ebf;" parent="1c1d494c118603dd-3" vertex="1">
          <mxGeometry x="40" y="1035" width="110" height="50" as="geometry" />
        </mxCell>
        <mxCell id="-dBXf5n9zOJm4QP1ZohO-32" style="edgeStyle=orthogonalEdgeStyle;rounded=0;orthogonalLoop=1;jettySize=auto;html=1;fillColor=#dae8fc;strokeColor=#6c8ebf;" parent="1c1d494c118603dd-3" source="sTQLgKxaRaXE6E2DyaXD-68" target="-dBXf5n9zOJm4QP1ZohO-31" edge="1">
          <mxGeometry relative="1" as="geometry" />
        </mxCell>
        <mxCell id="-dBXf5n9zOJm4QP1ZohO-33" value="Yes" style="edgeLabel;html=1;align=center;verticalAlign=middle;resizable=0;points=[];" parent="-dBXf5n9zOJm4QP1ZohO-32" vertex="1" connectable="0">
          <mxGeometry x="0.3944" y="-2" relative="1" as="geometry">
            <mxPoint x="18" y="-12" as="offset" />
          </mxGeometry>
        </mxCell>
        <mxCell id="sTQLgKxaRaXE6E2DyaXD-68" value="Customer.InQueueForInsepction == true" style="rhombus;whiteSpace=wrap;html=1;fontColor=#000000;fillColor=#ffffc0;strokeColor=#ff0000;" parent="1c1d494c118603dd-3" vertex="1">
          <mxGeometry x="155" y="800" width="190" height="70" as="geometry" />
        </mxCell>
        <mxCell id="sTQLgKxaRaXE6E2DyaXD-92" value="FreeClerks &amp;gt; 0" style="rhombus;whiteSpace=wrap;html=1;fontColor=#000000;fillColor=#ffffc0;strokeColor=#ff0000;" parent="1c1d494c118603dd-3" vertex="1">
          <mxGeometry x="255" y="1030" width="100" height="60" as="geometry" />
        </mxCell>
        <mxCell id="sTQLgKxaRaXE6E2DyaXD-93" value="no" style="edgeStyle=orthogonalEdgeStyle;html=1;align=left;verticalAlign=bottom;endArrow=open;endSize=8;strokeColor=#b85450;rounded=0;entryX=1;entryY=0.5;entryDx=0;entryDy=0;exitX=0;exitY=0.5;exitDx=0;exitDy=0;fillColor=#f8cecc;" parent="1c1d494c118603dd-3" source="sTQLgKxaRaXE6E2DyaXD-92" target="sTQLgKxaRaXE6E2DyaXD-13" edge="1">
          <mxGeometry x="-0.5556" y="-10" relative="1" as="geometry">
            <mxPoint x="425" y="1000" as="targetPoint" />
            <mxPoint x="275" y="930" as="sourcePoint" />
            <Array as="points">
              <mxPoint x="215" y="1060" />
              <mxPoint x="215" y="1060" />
            </Array>
            <mxPoint as="offset" />
          </mxGeometry>
        </mxCell>
        <mxCell id="sTQLgKxaRaXE6E2DyaXD-94" value="yes" style="edgeStyle=orthogonalEdgeStyle;html=1;align=left;verticalAlign=top;endArrow=open;endSize=8;strokeColor=#b85450;rounded=0;exitX=0.5;exitY=0;exitDx=0;exitDy=0;entryX=1;entryY=0.5;entryDx=0;entryDy=0;fillColor=#f8cecc;" parent="1c1d494c118603dd-3" source="sTQLgKxaRaXE6E2DyaXD-92" target="sTQLgKxaRaXE6E2DyaXD-118" edge="1">
          <mxGeometry x="-0.9375" y="30" relative="1" as="geometry">
            <mxPoint x="370" y="270" as="targetPoint" />
            <mxPoint x="220" y="820" as="sourcePoint" />
            <Array as="points">
              <mxPoint x="305" y="970" />
              <mxPoint x="370" y="970" />
              <mxPoint x="370" y="760" />
              <mxPoint x="460" y="760" />
              <mxPoint x="460" y="305" />
            </Array>
            <mxPoint as="offset" />
          </mxGeometry>
        </mxCell>
        <mxCell id="sTQLgKxaRaXE6E2DyaXD-125" style="edgeStyle=orthogonalEdgeStyle;rounded=0;orthogonalLoop=1;jettySize=auto;html=1;entryX=0;entryY=0.5;entryDx=0;entryDy=0;exitX=0.875;exitY=0.3;exitDx=0;exitDy=0;exitPerimeter=0;fillColor=#dae8fc;strokeColor=#000000;" parent="1c1d494c118603dd-3" source="sTQLgKxaRaXE6E2DyaXD-99" target="sTQLgKxaRaXE6E2DyaXD-29" edge="1">
          <mxGeometry relative="1" as="geometry">
            <Array as="points">
              <mxPoint x="235" y="240" />
              <mxPoint x="360" y="240" />
              <mxPoint x="360" y="100" />
            </Array>
          </mxGeometry>
        </mxCell>
        <mxCell id="sTQLgKxaRaXE6E2DyaXD-99" value="" style="shape=line;html=1;strokeWidth=6;strokeColor=#ff0000;" parent="1c1d494c118603dd-3" vertex="1">
          <mxGeometry x="60" y="300" width="200" height="10" as="geometry" />
        </mxCell>
        <mxCell id="sTQLgKxaRaXE6E2DyaXD-100" value="" style="edgeStyle=orthogonalEdgeStyle;html=1;verticalAlign=bottom;endArrow=open;endSize=8;strokeColor=#000000;rounded=0;entryX=0.5;entryY=0;entryDx=0;entryDy=0;" parent="1c1d494c118603dd-3" source="sTQLgKxaRaXE6E2DyaXD-99" target="sTQLgKxaRaXE6E2DyaXD-5" edge="1">
          <mxGeometry relative="1" as="geometry">
            <mxPoint x="200" y="390" as="targetPoint" />
            <Array as="points">
              <mxPoint x="205" y="330" />
              <mxPoint x="205" y="330" />
            </Array>
          </mxGeometry>
        </mxCell>
        <mxCell id="sTQLgKxaRaXE6E2DyaXD-102" value="Customer.InspectionDone == true" style="rhombus;whiteSpace=wrap;html=1;fontColor=#000000;fillColor=#ffffc0;strokeColor=#ff0000;" parent="1c1d494c118603dd-3" vertex="1">
          <mxGeometry x="180" y="540" width="210" height="60" as="geometry" />
        </mxCell>
        <mxCell id="sTQLgKxaRaXE6E2DyaXD-103" value="no" style="edgeStyle=orthogonalEdgeStyle;html=1;align=left;verticalAlign=bottom;endArrow=open;endSize=8;strokeColor=#6c8ebf;rounded=0;exitX=0.5;exitY=1;exitDx=0;exitDy=0;fillColor=#dae8fc;entryX=0.5;entryY=0;entryDx=0;entryDy=0;" parent="1c1d494c118603dd-3" source="sTQLgKxaRaXE6E2DyaXD-102" target="-dBXf5n9zOJm4QP1ZohO-21" edge="1">
          <mxGeometry x="-0.3333" y="-15" relative="1" as="geometry">
            <mxPoint x="330" y="650" as="targetPoint" />
            <mxPoint x="15" y="15" as="offset" />
          </mxGeometry>
        </mxCell>
        <UserObject label="FreeClerks--" placeholders="1" name="Variable" id="sTQLgKxaRaXE6E2DyaXD-52">
          <mxCell style="text;html=1;strokeColor=none;fillColor=none;align=center;verticalAlign=middle;whiteSpace=wrap;overflow=hidden;" parent="1c1d494c118603dd-3" vertex="1">
            <mxGeometry x="75" y="220" width="80" height="20" as="geometry" />
          </mxCell>
        </UserObject>
        <mxCell id="sTQLgKxaRaXE6E2DyaXD-98" style="edgeStyle=orthogonalEdgeStyle;rounded=0;orthogonalLoop=1;jettySize=auto;html=1;entryX=1;entryY=0.5;entryDx=0;entryDy=0;fillColor=#f8cecc;strokeColor=#b85450;" parent="1c1d494c118603dd-3" source="sTQLgKxaRaXE6E2DyaXD-89" target="sTQLgKxaRaXE6E2DyaXD-92" edge="1">
          <mxGeometry relative="1" as="geometry">
            <mxPoint x="380" y="790" as="targetPoint" />
          </mxGeometry>
        </mxCell>
        <mxCell id="sTQLgKxaRaXE6E2DyaXD-119" style="edgeStyle=orthogonalEdgeStyle;rounded=0;orthogonalLoop=1;jettySize=auto;html=1;entryX=1;entryY=0.5;entryDx=0;entryDy=0;entryPerimeter=0;fillColor=#f8cecc;strokeColor=#b85450;" parent="1c1d494c118603dd-3" source="sTQLgKxaRaXE6E2DyaXD-118" target="sTQLgKxaRaXE6E2DyaXD-99" edge="1">
          <mxGeometry relative="1" as="geometry" />
        </mxCell>
        <mxCell id="-dBXf5n9zOJm4QP1ZohO-22" style="edgeStyle=orthogonalEdgeStyle;rounded=0;orthogonalLoop=1;jettySize=auto;html=1;entryX=0;entryY=0.5;entryDx=0;entryDy=0;fillColor=#dae8fc;strokeColor=#6c8ebf;exitX=1;exitY=0.5;exitDx=0;exitDy=0;" parent="1c1d494c118603dd-3" source="-dBXf5n9zOJm4QP1ZohO-21" target="sTQLgKxaRaXE6E2DyaXD-12" edge="1">
          <mxGeometry relative="1" as="geometry">
            <Array as="points">
              <mxPoint x="360" y="705" />
              <mxPoint x="360" y="680" />
              <mxPoint x="400" y="680" />
              <mxPoint x="400" y="415" />
            </Array>
          </mxGeometry>
        </mxCell>
        <mxCell id="-dBXf5n9zOJm4QP1ZohO-23" value="Yes" style="edgeLabel;html=1;align=center;verticalAlign=middle;resizable=0;points=[];" parent="-dBXf5n9zOJm4QP1ZohO-22" vertex="1" connectable="0">
          <mxGeometry x="-0.9048" y="3" relative="1" as="geometry">
            <mxPoint x="3" y="-30" as="offset" />
          </mxGeometry>
        </mxCell>
        <mxCell id="-dBXf5n9zOJm4QP1ZohO-24" value="Enqueue Customer" style="edgeLabel;html=1;align=center;verticalAlign=middle;resizable=0;points=[];" parent="-dBXf5n9zOJm4QP1ZohO-22" vertex="1" connectable="0">
          <mxGeometry x="0.7105" relative="1" as="geometry">
            <mxPoint y="-15" as="offset" />
          </mxGeometry>
        </mxCell>
        <UserObject label="FreeClerks--" placeholders="1" name="Variable" id="sTQLgKxaRaXE6E2DyaXD-118">
          <mxCell style="text;html=1;strokeColor=none;fillColor=none;align=center;verticalAlign=middle;whiteSpace=wrap;overflow=hidden;" parent="1c1d494c118603dd-3" vertex="1">
            <mxGeometry x="300" y="295" width="80" height="20" as="geometry" />
          </mxCell>
        </UserObject>
        <mxCell id="-dBXf5n9zOJm4QP1ZohO-25" style="edgeStyle=orthogonalEdgeStyle;rounded=0;orthogonalLoop=1;jettySize=auto;html=1;fillColor=#dae8fc;strokeColor=#6c8ebf;exitX=0.5;exitY=1;exitDx=0;exitDy=0;entryX=0.489;entryY=0.2;entryDx=0;entryDy=0;entryPerimeter=0;" parent="1c1d494c118603dd-3" source="-dBXf5n9zOJm4QP1ZohO-21" target="-dBXf5n9zOJm4QP1ZohO-28" edge="1">
          <mxGeometry relative="1" as="geometry">
            <mxPoint x="350" y="740" as="targetPoint" />
            <Array as="points">
              <mxPoint x="260" y="770" />
              <mxPoint x="330" y="770" />
              <mxPoint x="330" y="719" />
            </Array>
          </mxGeometry>
        </mxCell>
        <mxCell id="-dBXf5n9zOJm4QP1ZohO-27" value="No" style="edgeLabel;html=1;align=center;verticalAlign=middle;resizable=0;points=[];" parent="-dBXf5n9zOJm4QP1ZohO-25" vertex="1" connectable="0">
          <mxGeometry x="0.62" y="2" relative="1" as="geometry">
            <mxPoint x="-63" y="8" as="offset" />
          </mxGeometry>
        </mxCell>
        <mxCell id="-dBXf5n9zOJm4QP1ZohO-21" value="&lt;div&gt;Customer.InQueueForInspection == true&lt;/div&gt;&lt;div&gt;&amp;amp;&amp;amp; &lt;br&gt;&lt;/div&gt;&lt;div&gt;FreeMechanics == 0&lt;br&gt;&lt;/div&gt;" style="rhombus;whiteSpace=wrap;html=1;fontColor=#000000;fillColor=#ffffc0;strokeColor=#ff0000;" parent="1c1d494c118603dd-3" vertex="1">
          <mxGeometry x="180" y="660" width="160" height="90" as="geometry" />
        </mxCell>
        <mxCell id="-dBXf5n9zOJm4QP1ZohO-29" style="edgeStyle=orthogonalEdgeStyle;rounded=0;orthogonalLoop=1;jettySize=auto;html=1;exitX=0;exitY=0.5;exitDx=0;exitDy=0;exitPerimeter=0;fillColor=#dae8fc;strokeColor=#6c8ebf;" parent="1c1d494c118603dd-3" source="-dBXf5n9zOJm4QP1ZohO-28" target="sTQLgKxaRaXE6E2DyaXD-68" edge="1">
          <mxGeometry relative="1" as="geometry">
            <Array as="points">
              <mxPoint x="375" y="750" />
              <mxPoint x="360" y="750" />
              <mxPoint x="360" y="780" />
              <mxPoint x="260" y="780" />
            </Array>
          </mxGeometry>
        </mxCell>
        <mxCell id="-dBXf5n9zOJm4QP1ZohO-30" style="edgeStyle=orthogonalEdgeStyle;rounded=0;orthogonalLoop=1;jettySize=auto;html=1;entryX=0;entryY=0.5;entryDx=0;entryDy=0;fillColor=#dae8fc;strokeColor=#6c8ebf;" parent="1c1d494c118603dd-3" source="-dBXf5n9zOJm4QP1ZohO-28" target="sTQLgKxaRaXE6E2DyaXD-7" edge="1">
          <mxGeometry relative="1" as="geometry" />
        </mxCell>
        <mxCell id="-dBXf5n9zOJm4QP1ZohO-28" value="" style="shape=line;html=1;strokeWidth=6;strokeColor=#ff0000;rotation=-90;" parent="1c1d494c118603dd-3" vertex="1">
          <mxGeometry x="355" y="712.5" width="45" height="10" as="geometry" />
        </mxCell>
        <mxCell id="-dBXf5n9zOJm4QP1ZohO-31" value="&lt;div&gt;NumberOfCarsBeforeInspection--&lt;/div&gt;&lt;div&gt;FreeMechanics--&lt;br&gt;&lt;/div&gt;" style="text;html=1;align=center;verticalAlign=middle;resizable=0;points=[];autosize=1;strokeColor=none;fillColor=none;" parent="1c1d494c118603dd-3" vertex="1">
          <mxGeometry x="145" y="920" width="210" height="40" as="geometry" />
        </mxCell>
      </root>
    </mxGraphModel>
  </diagram>
</mxfile>
